<svg width="73" height="30" viewBox="0 0 73 30" fill="none" xmlns="http://www.w3.org/2000/svg">
<path d="M0 17.1381V6.14699C0 4.96659 0.644592 3.77506 1.93377 2.57238C3.72105 0.924276 5.99177 0.100223 8.74594 0.100223V2.97327C6.87076 2.99555 5.44973 3.68597 4.48284 5.04454C4.07265 5.64588 3.86755 6.19154 3.86755 6.68151V17.1381C3.86755 18.7862 4.98094 19.9443 7.20771 20.6125C7.8523 20.8129 8.36504 20.9131 8.74594 20.9131V23.8196C6.95866 23.8196 5.20068 23.3408 3.472 22.3831C1.18663 21.069 0.0292996 19.3207 0 17.1381ZM10.9434 23.8196V20.9131C11.6466 20.9131 12.4963 20.6793 13.4925 20.2116C15.0454 19.4766 15.8218 18.4521 15.8218 17.1381V6.68151C15.8218 5.76837 15.3237 4.91091 14.3275 4.10913C13.3899 3.37416 12.2619 2.99555 10.9434 2.97327V0.100223C13.9613 0.077951 16.3638 1.03563 18.1511 2.97327C19.1766 4.10913 19.6893 5.16704 19.6893 6.14699V17.1381C19.66 19.588 18.0046 21.5033 14.7231 22.8842L17.2282 25.657L14.1517 27.2272L10.9434 23.8196Z" fill="#07070A"/>
<path d="M22.1945 8.48552V5.77951H25.0951V0H28.8308V5.77951H31.6436V8.51893H28.8308V18.1069C28.8308 19.6882 29.6805 20.5679 31.3799 20.7461C31.7022 20.7906 32.0245 20.8129 32.3468 20.8129H32.9621L33.7971 23.6526H32.2149C28.6111 23.6303 26.399 22.6058 25.5786 20.5791C25.2856 19.8218 25.1391 18.8864 25.1391 17.7728L25.0951 8.48552H22.1945Z" fill="#07070A"/>
<path d="M35.8627 23.6526H39.6863V0.267261H35.8627V23.6526ZM41.8838 13.196H46.6303C50.4686 13.1737 52.8712 12.0601 53.8381 9.85523C54.2189 8.96437 54.4094 7.90646 54.4094 6.68151C54.4094 2.60579 51.9922 0.467706 47.1577 0.267261C46.9819 0.267261 46.8061 0.267261 46.6303 0.267261H41.8838V3.0735H46.0151C48.9743 3.11804 50.4686 4.32071 50.4979 6.68151C50.4393 9.10913 48.9597 10.3341 46.059 10.3563H41.8838V13.196Z" fill="#07070A"/>
<path d="M55.4202 5.57906H59.3317L66.012 19.7105L61.4853 30H57.7495L62.0566 19.6771L55.4202 5.57906ZM65.1331 13.3296L69.1325 5.57906H73L67.1547 17.2383H66.7592L65.1331 13.3296Z" fill="#07070A"/>
</svg>
