<svg width="121" height="40" viewBox="0 0 121 40" fill="none" xmlns="http://www.w3.org/2000/svg">
<g opacity="0.6" filter="url(#filter0_i_4_148)">
<path d="M17.232 31.688C14.7953 31.688 12.5307 31.301 10.438 30.527C8.374 29.753 6.58233 28.6637 5.063 27.259C3.54367 25.8257 2.354 24.1487 1.494 22.228C0.662667 20.3073 0.247 18.2147 0.247 15.95C0.247 13.6567 0.662667 11.564 1.494 9.672C2.354 7.75133 3.54367 6.08867 5.063 4.684C6.58233 3.25066 8.374 2.147 10.438 1.373C12.5307 0.598999 14.7953 0.211999 17.232 0.211999C19.6973 0.211999 21.962 0.598999 24.026 1.373C26.09 2.147 27.8817 3.25066 29.401 4.684C30.9203 6.08867 32.0957 7.75133 32.927 9.672C33.787 11.564 34.217 13.6567 34.217 15.95C34.217 18.2147 33.787 20.3073 32.927 22.228C32.0957 24.1487 30.9203 25.8257 29.401 27.259C27.8817 28.6637 26.09 29.753 24.026 30.527C21.962 31.301 19.6973 31.688 17.232 31.688ZM27.079 38.611C25.6743 38.611 24.37 38.4677 23.166 38.181C21.962 37.923 20.7867 37.4787 19.64 36.848C18.522 36.2173 17.3467 35.343 16.114 34.225C14.8813 33.1357 13.5053 31.774 11.986 30.14L22.478 27.56C23.166 28.6207 23.7537 29.4377 24.241 30.011C24.7283 30.5843 25.2013 30.9857 25.66 31.215C26.1473 31.4443 26.692 31.559 27.294 31.559C28.7847 31.559 30.175 30.914 31.465 29.624L35.851 34.784C33.701 37.3353 30.777 38.611 27.079 38.611ZM17.232 23.475C18.178 23.475 19.0523 23.303 19.855 22.959C20.6863 22.615 21.403 22.1277 22.005 21.497C22.6357 20.8377 23.123 20.0493 23.467 19.132C23.811 18.186 23.983 17.1253 23.983 15.95C23.983 14.7747 23.811 13.7283 23.467 12.811C23.123 11.865 22.6357 11.0767 22.005 10.446C21.403 9.78667 20.6863 9.285 19.855 8.941C19.0523 8.597 18.178 8.425 17.232 8.425C16.286 8.425 15.3973 8.597 14.566 8.941C13.7633 9.285 13.0467 9.78667 12.416 10.446C11.814 11.0767 11.341 11.865 10.997 12.811C10.653 13.7283 10.481 14.7747 10.481 15.95C10.481 17.1253 10.653 18.186 10.997 19.132C11.341 20.0493 11.814 20.8377 12.416 21.497C13.0467 22.1277 13.7633 22.615 14.566 22.959C15.3973 23.303 16.286 23.475 17.232 23.475ZM50.8812 31.43C47.6418 31.43 45.1192 30.656 43.3132 29.108C41.5072 27.5313 40.6042 25.1233 40.6042 21.884V2.19H50.3222V21.798C50.3222 22.5147 50.5085 23.0737 50.8812 23.475C51.2825 23.8763 51.7698 24.077 52.3432 24.077C53.1745 24.077 53.9055 23.862 54.5362 23.432L56.8582 30.183C56.1128 30.613 55.2098 30.9283 54.1492 31.129C53.1172 31.3297 52.0278 31.43 50.8812 31.43ZM37.3792 15.864V8.769H55.1382V15.864H37.3792ZM61.3285 31V0.899998H75.8195C78.6288 0.899998 81.0512 1.35866 83.0865 2.276C85.1505 3.19333 86.7415 4.512 87.8595 6.232C88.9775 7.92333 89.5365 9.93 89.5365 12.252C89.5365 14.574 88.9775 16.5807 87.8595 18.272C86.7415 19.9633 85.1505 21.282 83.0865 22.228C81.0512 23.1453 78.6288 23.604 75.8195 23.604H66.9615L71.4765 19.261V31H61.3285ZM71.4765 20.379L66.9615 15.778H75.1745C76.5792 15.778 77.6112 15.4627 78.2705 14.832C78.9585 14.2013 79.3025 13.3413 79.3025 12.252C79.3025 11.1627 78.9585 10.3027 78.2705 9.672C77.6112 9.04133 76.5792 8.726 75.1745 8.726H66.9615L71.4765 4.125V20.379ZM99.8636 39.772C98.5736 39.772 97.2549 39.5713 95.9076 39.17C94.5889 38.7973 93.5282 38.2957 92.7256 37.665L95.9506 31C96.4379 31.3727 96.9826 31.6737 97.5846 31.903C98.2152 32.1323 98.8172 32.247 99.3906 32.247C100.251 32.247 100.91 32.0607 101.369 31.688C101.827 31.344 102.2 30.8137 102.487 30.097L103.476 27.603L104.164 26.657L111.689 7.479H120.891L111.216 31.473C110.356 33.623 109.352 35.3 108.206 36.504C107.088 37.708 105.826 38.5537 104.422 39.041C103.046 39.5283 101.526 39.772 99.8636 39.772ZM102.143 32.075L91.9086 7.479H101.885L108.937 25.797L102.143 32.075Z" fill="#9CA0B0"/>
</g>
<defs>
<filter id="filter0_i_4_148" x="0.246948" y="0.212006" width="120.644" height="43.56" filterUnits="userSpaceOnUse" color-interpolation-filters="sRGB">
<feFlood flood-opacity="0" result="BackgroundImageFix"/>
<feBlend mode="normal" in="SourceGraphic" in2="BackgroundImageFix" result="shape"/>
<feColorMatrix in="SourceAlpha" type="matrix" values="0 0 0 0 0 0 0 0 0 0 0 0 0 0 0 0 0 0 127 0" result="hardAlpha"/>
<feOffset dy="4"/>
<feGaussianBlur stdDeviation="2"/>
<feComposite in2="hardAlpha" operator="arithmetic" k2="-1" k3="1"/>
<feColorMatrix type="matrix" values="0 0 0 0 0.615686 0 0 0 0 0.72549 0 0 0 0 1 0 0 0 0.29 0"/>
<feBlend mode="normal" in2="shape" result="effect1_innerShadow_4_148"/>
</filter>
</defs>
</svg>
