<svg width="32" height="46" viewBox="0 0 32 46" fill="none" xmlns="http://www.w3.org/2000/svg">
<path fillRule="evenodd" clipRule="evenodd" d="M0 8.85504L2.91216 41.5172L15.9806 45.145L29.0847 41.5118L32 8.85504H0ZM26.6025 39.4569L16.0269 42.3662V38.209L15.995 38.2166L7.77528 35.9406L7.21408 29.655H11.2356L11.5275 32.8456L15.9959 34.0456L16.0269 34.041V27.575H7.01672L6.66592 23.575L16.0269 19.5686V19.2918H6.30968L5.95472 15.2918H16.0269V11.5751H29.0803L26.6025 39.4569Z" fill="#FBF9F9"/>
<path d="M16.6726 19.2918L16.0269 19.5686V23.575V27.575H20.919L20.4744 32.8047L16.0269 34.0444V38.2122L24.2194 35.9362L25.2982 23.575H16.0269L25.6618 19.2918L26.0059 15.2918H16.0269V19.2918H16.6726Z" fill="#FBF9F9"/>
<path fillRule="evenodd" clipRule="evenodd" d="M11.36 2.08V0H6.4V6.08H11.36V4H8.48V2.08H11.36Z" fill="#FBF9F9"/>
<path fillRule="evenodd" clipRule="evenodd" d="M18.4 0H13.44V2.13512L15.5097 4H13.44V6.08H18.4V4.05504L16.5184 2.08H18.4V0Z" fill="#FBF9F9"/>
<path fillRule="evenodd" clipRule="evenodd" d="M25.6 0H20.64V2.13512L22.6297 4H20.64V6.08H25.6V4.05504L23.6384 2.08H25.6V0Z" fill="#FBF9F9"/>
</svg>
