<svg width="32" height="32" viewBox="0 0 32 32" fill="none" xmlns="http://www.w3.org/2000/svg">
<path fillRule="evenodd" clipRule="evenodd" d="M31.3964 14.5742L17.4248 0.603557C16.6207 -0.201186 15.3156 -0.201186 14.5106 0.603557L11.6093 3.50477L15.2897 7.1851C16.145 6.89613 17.1256 7.08995 17.8075 7.7718C18.4925 8.45787 18.6849 9.44694 18.3889 10.3051L21.9358 13.852C22.7939 13.5563 23.784 13.7477 24.4694 14.4341C25.4272 15.3916 25.4272 16.9435 24.4694 17.9017C23.5112 18.8598 21.9593 18.8598 21.0008 17.9017C20.2803 17.1805 20.1023 16.1222 20.4671 15.2346L17.1593 11.9268L17.159 20.6315C17.3925 20.7474 17.613 20.9015 17.8075 21.0953C18.7653 22.0528 18.7653 23.6047 17.8075 24.5636C16.8493 25.5214 15.2967 25.5214 14.3399 24.5636C13.3821 23.6047 13.3821 22.0528 14.3399 21.0953C14.5766 20.859 14.8504 20.6803 15.1425 20.5602V11.7744C14.8504 11.6551 14.5769 11.4774 14.3399 11.2394C13.6142 10.5147 13.4397 9.44975 13.8115 8.55864L10.1838 4.93027L0.60382 14.5096C-0.201273 15.315 -0.201273 16.6201 0.60382 17.4248L14.5755 31.3958C15.3799 32.2006 16.6846 32.2006 17.4901 31.3958L31.3964 17.4898C32.2012 16.6847 32.2012 15.3789 31.3964 14.5742" fill="#FBF9F9"/>
</svg>
