<svg width="32" height="46" viewBox="0 0 32 46" fill="none" xmlns="http://www.w3.org/2000/svg">
<path d="M16 19.5595V23.6618H10.6989L10.3328 19.5595H16Z" fill="#FBF9F9"/>
<path fillRule="evenodd" clipRule="evenodd" d="M0 8.87659L2.91219 41.5403L15.9804 45.1681L29.0847 41.5351L32 8.87659H0ZM26.5889 39.4556L16 42.3912V38.234L15.9816 38.2391L7.77544 35.961L7.21419 29.6709H11.2357L11.5209 32.866L15.9824 34.0707L16 34.066V27.6678H7.03519L5.95469 15.5534H15.9862H16V11.5473H29.0802L26.5889 39.4556Z" fill="#FBF9F9"/>
<path fillRule="evenodd" clipRule="evenodd" d="M2.9773 0H5.01313V2.01139H6.87543V0H8.91135V6.09099H6.87552V4.05137H5.01322V6.09099H2.97739L2.9773 0Z" fill="#FBF9F9"/>
<path fillRule="evenodd" clipRule="evenodd" d="M11.5885 2.01986H9.79627V0H15.4176V2.01986H13.6245V6.09099H11.5886L11.5885 2.01986Z" fill="#FBF9F9"/>
<path fillRule="evenodd" clipRule="evenodd" d="M16.3097 0H18.4326L19.7384 2.14019L21.0429 0H23.1665V6.09099H21.139V3.07196L19.7384 5.23765H19.7033L18.3017 3.07196V6.09099H16.3097V0Z" fill="#FBF9F9"/>
<path fillRule="evenodd" clipRule="evenodd" d="M24.1797 0H26.2161V4.07765H29.0791V6.09099H24.1797V0Z" fill="#FBF9F9"/>
<path fillRule="evenodd" clipRule="evenodd" d="M15.9862 23.6618V27.6678H20.9192L20.4542 32.8634L15.9862 34.0694V38.2372L24.1988 35.961L25.2004 24.7376L25.2982 23.6618H15.9862Z" fill="#FBF9F9"/>
<path fillRule="evenodd" clipRule="evenodd" d="M15.9862 15.5534V19.5595H25.6627L26.0214 15.5534H15.9862Z" fill="#FBF9F9"/>
</svg>
