<svg width="32" height="29" viewBox="0 0 32 29" fill="none" xmlns="http://www.w3.org/2000/svg">
<path d="M26.3104 9.22795C25.9785 9.11369 25.6345 9.00558 25.2803 8.90334C25.3385 8.66576 25.3919 8.43126 25.4395 8.20075C26.2192 4.41561 25.7094 1.36628 23.9684 0.362312C22.299 -0.600362 19.5689 0.40338 16.8116 2.80297C16.5465 3.03372 16.2806 3.27802 16.0148 3.53405C15.8377 3.36465 15.6609 3.20095 15.4846 3.04437C12.5948 0.478566 9.69833 -0.602697 7.95907 0.404177C6.2913 1.36964 5.7974 4.2363 6.49931 7.8235C6.5671 8.16999 6.64633 8.52382 6.73592 8.88358C6.32599 8.99995 5.93023 9.124 5.55156 9.25598C2.16367 10.4371 0 12.2883 0 14.2085C0 16.1917 2.3227 18.1808 5.85146 19.3869C6.12993 19.4821 6.41889 19.5721 6.71667 19.6575C6.62001 20.0466 6.53594 20.4279 6.46537 20.7998C5.79609 24.3247 6.31875 27.1237 7.98209 28.0831C9.70016 29.0738 12.5836 28.0554 15.3913 25.6012C15.6132 25.4071 15.8359 25.2014 16.059 24.9858C16.3482 25.2642 16.6369 25.5278 16.9241 25.775C19.6437 28.1153 22.3297 29.0603 23.9915 28.0983C25.7079 27.1047 26.2657 24.0979 25.5415 20.4398C25.4862 20.1604 25.4219 19.875 25.3496 19.5845C25.5521 19.5246 25.7509 19.4628 25.9447 19.3985C29.6132 18.1831 32 16.2181 32 14.2085C32 12.2814 29.7666 10.4177 26.3104 9.22795ZM25.5148 18.1009C25.3398 18.1589 25.1602 18.2149 24.9773 18.2691C24.5723 16.987 24.0257 15.6237 23.3568 14.2152C23.9951 12.8402 24.5206 11.4943 24.9142 10.2205C25.2416 10.3152 25.5593 10.4151 25.8655 10.5205C28.8267 11.5399 30.633 13.0472 30.633 14.2085C30.633 15.4455 28.6822 17.0514 25.5148 18.1009ZM24.2005 20.7053C24.5207 22.3228 24.5664 23.7853 24.3543 24.9286C24.1637 25.956 23.7804 26.6409 23.3065 26.9152C22.2981 27.4989 20.1415 26.7402 17.8156 24.7387C17.549 24.5093 17.2805 24.2643 17.011 24.005C17.9127 23.0189 18.8139 21.8725 19.6934 20.5992C21.2403 20.462 22.7019 20.2376 24.0273 19.9312C24.0925 20.1945 24.1505 20.4527 24.2005 20.7053ZM10.9095 26.8143C9.92424 27.1623 9.1395 27.1723 8.66514 26.8988C7.65576 26.3166 7.23614 24.0693 7.80853 21.0548C7.87409 20.7095 7.95213 20.3549 8.04206 19.9924C9.35293 20.2823 10.8037 20.4909 12.3544 20.6166C13.2399 21.8624 14.167 23.0076 15.1014 24.0103C14.8973 24.2074 14.6939 24.395 14.4917 24.5718C13.2502 25.6571 12.006 26.4271 10.9095 26.8143ZM6.29358 18.0934C4.73323 17.5601 3.44463 16.8669 2.56136 16.1105C1.76768 15.4309 1.36697 14.7561 1.36697 14.2085C1.36697 13.0433 3.10418 11.557 6.00154 10.5469C6.3531 10.4243 6.72112 10.3088 7.10303 10.2003C7.50346 11.5028 8.02874 12.8647 8.66264 14.2418C8.02053 15.6393 7.48779 17.0229 7.08344 18.3407C6.81117 18.2624 6.54739 18.1801 6.29358 18.0934ZM7.84088 7.56098C7.2395 4.48755 7.6389 2.16907 8.64396 1.58728C9.71451 0.967507 12.0818 1.85118 14.5769 4.06662C14.7364 4.20822 14.8965 4.35643 15.057 4.50977C14.1273 5.5081 13.2086 6.64467 12.331 7.8832C10.826 8.02269 9.3854 8.24677 8.06086 8.54683C7.97759 8.21185 7.90382 7.88274 7.84088 7.56098ZM21.6442 10.9694C21.3276 10.4225 21.0025 9.88846 20.6711 9.36904C21.6921 9.49811 22.6704 9.66945 23.589 9.87912C23.3132 10.763 22.9695 11.6872 22.5648 12.6346C22.2746 12.0835 21.9675 11.5279 21.6442 10.9694ZM16.0153 5.48674C16.6458 6.16985 17.2773 6.93254 17.8983 7.76005C17.2725 7.73049 16.6389 7.71511 16 7.71511C15.3672 7.71511 14.7382 7.73015 14.1162 7.7592C14.7379 6.93938 15.3749 6.17771 16.0153 5.48674ZM10.3502 10.9788C10.0339 11.5273 9.73262 12.0799 9.44692 12.6336C9.04883 11.6895 8.70826 10.7611 8.43007 9.86465C9.34308 9.66033 10.3167 9.49327 11.3312 9.36665C10.9951 9.89085 10.6674 10.4288 10.3502 10.9787V10.9788ZM11.3604 19.1479C10.3122 19.0309 9.324 18.8725 8.41122 18.6738C8.69385 17.7614 9.04193 16.8131 9.44845 15.8487C9.7349 16.402 10.0374 16.9548 10.3556 17.5045H10.3557C10.6799 18.0644 11.0157 18.613 11.3604 19.1479ZM16.0531 23.0266C15.4052 22.3276 14.7589 21.5543 14.1277 20.7225C14.7405 20.7465 15.3651 20.7589 16 20.7589C16.6522 20.7589 17.297 20.7442 17.9317 20.7159C17.3085 21.5627 16.6794 22.3371 16.0531 23.0266ZM22.5779 15.7996C23.0056 16.7744 23.3661 17.7177 23.6524 18.6145C22.7246 18.8262 21.7228 18.9967 20.6674 19.1234C20.9996 18.5969 21.3275 18.0538 21.6497 17.4951C21.9757 16.9298 22.2852 16.3637 22.5779 15.7996ZM20.4656 16.8121C19.9654 17.6794 19.4518 18.5074 18.9305 19.289C17.9809 19.3568 16.9999 19.3918 16 19.3918C15.0042 19.3918 14.0355 19.3609 13.1028 19.3003C12.5604 18.5085 12.0357 17.6781 11.5386 16.8196H11.5388C11.043 15.9634 10.5868 15.0999 10.1734 14.2413C10.5867 13.3807 11.0417 12.5163 11.5346 11.6616L11.5345 11.6618C12.0287 10.8048 12.5488 9.97845 13.0861 9.19161C14.0378 9.11967 15.0137 9.08214 15.9999 9.08214H16C16.9907 9.08214 17.9678 9.11996 18.9192 9.19253C19.4484 9.97361 19.965 10.7973 20.4611 11.6544C20.9628 12.5211 21.4237 13.3797 21.8406 14.2219C21.425 15.0785 20.9651 15.9458 20.4656 16.8121ZM23.2856 1.54662C24.3572 2.16457 24.7739 4.65678 24.1006 7.92483C24.0577 8.13336 24.0093 8.34576 23.9568 8.56102C22.6292 8.25469 21.1875 8.02673 19.6782 7.88513C18.7989 6.63299 17.8877 5.49465 16.9731 4.50914C17.219 4.27259 17.4645 4.04703 17.7091 3.83417C20.0715 1.77821 22.2796 0.966482 23.2856 1.54662ZM16 11.351C17.5781 11.351 18.8575 12.6303 18.8575 14.2085C18.8575 15.7866 17.5781 17.066 16 17.066C14.4219 17.066 13.1425 15.7866 13.1425 14.2085C13.1425 12.6303 14.4219 11.351 16 11.351Z" fill="#FBF9F9"/>
</svg>
