<svg width="32" height="32" viewBox="0 0 32 32" fill="none" xmlns="http://www.w3.org/2000/svg">
<g clip-path="url(#clip0_112_113)">
<path d="M0.0108862 0.448115C-0.0557332 0.178418 0.194404 -0.0623516 0.461362 0.0145074L8.24003 2.25401C8.30967 2.25376 8.37853 2.2736 8.43736 2.31086L23.7786 6.72765C23.8422 6.72897 23.9048 6.74698 23.9594 6.77965L31.7386 9.01942C32.0059 9.09637 32.0895 9.43387 31.889 9.62668L8.41404 32.2078C8.21368 32.4005 7.87981 32.304 7.81313 32.0341L3.91908 16.2698C3.91387 16.2536 3.90978 16.2371 3.90685 16.2204L0.0108862 0.448115ZM6.67413 24.4119L8.36412 31.2535L13.4534 26.3579L6.67413 24.4119ZM11.9163 19.0014L6.98902 23.7508L13.553 25.6352L11.9163 19.0014ZM12.6477 18.9506L14.2793 25.5635L19.1931 20.8368L12.6477 18.9506ZM4.764 16.6789L6.40263 23.313L11.3241 18.5693L4.764 16.6789ZM17.727 13.3941L12.7206 18.2199L19.3923 20.1424L17.727 13.3941ZM18.4285 13.2225L20.0938 19.9705L25.1139 15.1416L18.4285 13.2225ZM9.98088 11.1549L4.96376 15.9848L11.6476 17.9107L9.98088 11.1549ZM10.6797 10.9727L12.3164 17.6064L17.2437 12.8569L10.6797 10.9727ZM2.798 8.71988L4.46375 15.4637L9.47725 10.6372L2.798 8.71988ZM23.5719 7.78358L18.6446 12.533L25.2087 14.4175L23.5719 7.78358ZM24.2761 7.62238L25.9361 14.3506L30.9371 9.54018L24.2761 7.62238ZM15.7937 5.55916L10.8885 10.2812L17.4216 12.1566L15.7937 5.55916ZM16.4937 5.38175L18.1327 12.0235L23.0615 7.27262L16.4937 5.38175ZM8.04219 3.31001L3.11489 8.05946L9.67891 9.9439L8.04219 3.31001ZM8.747 3.15138L10.3796 9.7685L15.295 5.03662L8.747 3.15138ZM0.861769 0.881205L2.52712 7.62313L7.52987 2.801L0.861769 0.881205Z" fill="#FBF9F9"/>
</g>
<defs>
<clipPath id="clip0_112_113">
<rect width="32" height="32" fill="white"/>
</clipPath>
</defs>
</svg>
