<svg width="32" height="32" viewBox="0 0 32 32" fill="none" xmlns="http://www.w3.org/2000/svg">
<path fillRule="evenodd" clipRule="evenodd" d="M0.375 0.375H31.625V31.625H0.375V0.375ZM8.59177 26.4898L8.59182 26.4897C9.28406 27.958 10.6477 29.1746 12.9969 29.1746C15.5981 29.1746 17.3811 27.7901 17.3811 24.7484V14.7218H14.4443V24.7069C14.4443 26.1751 13.836 26.5526 12.871 26.5526C11.8643 26.5526 11.4446 25.8605 10.9832 25.0425L8.59182 26.4897L8.59172 26.4895L8.59177 26.4898ZM21.3674 24.7906L18.9762 26.1751C19.8362 27.8743 21.5983 29.1748 24.3252 29.1748C27.1151 29.1748 29.1918 27.7275 29.1918 25.0843C29.1918 22.6301 27.7863 21.5394 25.29 20.4695L24.5559 20.1549C23.2974 19.6094 22.752 19.2527 22.752 18.3717C22.752 17.6586 23.2974 17.1132 24.1575 17.1132C24.9965 17.1132 25.5418 17.4697 26.0452 18.3717L28.3317 16.9034C27.3669 15.2042 26.0244 14.5539 24.1574 14.5539C21.5352 14.5539 19.8571 16.2321 19.8571 18.4347C19.8571 20.8261 21.2626 21.9588 23.3814 22.8607L24.1154 23.1755C25.4579 23.7627 26.255 24.1193 26.255 25.1262C26.255 25.9653 25.4791 26.5737 24.2623 26.5737C22.8149 26.5737 21.9968 25.8186 21.3674 24.7906Z" fill="#FBF9F9"/>
</svg>
