<svg width="32" height="20" viewBox="0 0 32 20" fill="none" xmlns="http://www.w3.org/2000/svg">
<path fillRule="evenodd" clipRule="evenodd" d="M15.8264 19.5949C15.7179 19.5949 15.6166 19.566 15.5226 19.5154L14.5606 18.9439C14.4159 18.8644 14.4882 18.8354 14.5316 18.821C14.7269 18.7559 14.7631 18.7414 14.9656 18.6257C14.9873 18.6112 15.0163 18.6184 15.038 18.6329L15.7758 19.0741C15.8047 19.0886 15.8409 19.0886 15.8626 19.0741L18.7486 17.4033C18.7776 17.3888 18.792 17.3599 18.792 17.3237V13.9892C18.792 13.953 18.7776 13.9241 18.7486 13.9096L15.8626 12.2459C15.8336 12.2315 15.7975 12.2315 15.7758 12.2459L12.8897 13.9096C12.8607 13.9241 12.8463 13.9602 12.8463 13.9892V17.3237C12.8463 17.3526 12.8607 17.3888 12.8897 17.4033L13.6781 17.859C14.1049 18.076 14.3725 17.8228 14.3725 17.5696V14.2785C14.3725 14.2351 14.4087 14.1917 14.4593 14.1917H14.8282C14.8716 14.1917 14.915 14.2278 14.915 14.2785V17.5696C14.915 18.1411 14.604 18.4738 14.0615 18.4738C13.8951 18.4738 13.7649 18.4738 13.396 18.293L12.6365 17.859C12.4484 17.7505 12.3327 17.5479 12.3327 17.3309V13.9964C12.3327 13.7794 12.4484 13.5769 12.6365 13.4684L15.5226 11.7975C15.7034 11.6962 15.9494 11.6962 16.1302 11.7975L19.0163 13.4684C19.2043 13.5769 19.3201 13.7794 19.3201 13.9964V17.3309C19.3201 17.5479 19.2043 17.7505 19.0163 17.859L16.1302 19.5298C16.0361 19.5732 15.9277 19.5949 15.8264 19.5949ZM16.7161 17.302C15.4503 17.302 15.1899 16.7233 15.1899 16.2315C15.1899 16.1881 15.226 16.1447 15.2767 16.1447H15.6528C15.6962 16.1447 15.7324 16.1736 15.7324 16.217C15.7902 16.6004 15.9566 16.7884 16.7233 16.7884C17.3309 16.7884 17.5913 16.651 17.5913 16.3255C17.5913 16.1374 17.519 16 16.5714 15.906C15.783 15.8264 15.2911 15.6528 15.2911 15.0235C15.2911 14.4376 15.783 14.0904 16.6076 14.0904C17.5334 14.0904 17.9891 14.4087 18.047 15.1031C18.047 15.1248 18.0398 15.1465 18.0253 15.1682C18.0108 15.1826 17.9891 15.1971 17.9674 15.1971H17.5913C17.5551 15.1971 17.519 15.1682 17.5117 15.132C17.4249 14.7342 17.2007 14.604 16.6076 14.604C15.9421 14.604 15.8626 14.8354 15.8626 15.009C15.8626 15.2188 15.9566 15.2839 16.8535 15.3996C17.7432 15.5154 18.1627 15.6817 18.1627 16.3038C18.1555 16.9403 17.6347 17.302 16.7161 17.302Z" fill="#FBF9F9"/>
<path fillRule="evenodd" clipRule="evenodd" d="M6.87161 6.55335C6.87161 6.42315 6.79928 6.30018 6.68355 6.23509L3.61664 4.47017C3.566 4.44123 3.50814 4.42677 3.45027 4.41953H3.42134C3.36347 4.41953 3.30561 4.44123 3.25497 4.47017L0.188065 6.23509C0.0723327 6.30018 0 6.42315 0 6.55335L0.00723327 11.2984C0.00723327 11.3635 0.0433996 11.4286 0.101266 11.4575C0.159132 11.4937 0.231465 11.4937 0.282098 11.4575L2.10488 10.4159C2.22062 10.3508 2.29295 10.2279 2.29295 10.0977V7.87704C2.29295 7.74684 2.36528 7.62387 2.48101 7.55877L3.25497 7.11031C3.31284 7.07414 3.37794 7.05968 3.44304 7.05968C3.50814 7.05968 3.57324 7.07414 3.62387 7.11031L4.39783 7.55877C4.51356 7.62387 4.5859 7.74684 4.5859 7.87704V10.0977C4.5859 10.2279 4.65823 10.3508 4.77396 10.4159L6.59675 11.4575C6.65461 11.4937 6.72695 11.4937 6.78481 11.4575C6.84268 11.4286 6.87884 11.3635 6.87884 11.2984L6.87161 6.55335Z" fill="#FBF9F9"/>
<path fillRule="evenodd" clipRule="evenodd" d="M21.613 0.0216998C21.5551 -0.00723328 21.4828 -0.00723328 21.4322 0.0216998C21.3743 0.0578662 21.3381 0.115732 21.3381 0.180832V4.88246C21.3381 4.92586 21.3164 4.96926 21.273 4.99819C21.2296 5.01989 21.1862 5.01989 21.1428 4.99819L20.3761 4.55696C20.2604 4.49186 20.1229 4.49186 20.0072 4.55696L16.9403 6.32912C16.8246 6.39422 16.7522 6.51718 16.7522 6.64738V10.1845C16.7522 10.3147 16.8246 10.4376 16.9403 10.5027L20.0072 12.2749C20.1229 12.34 20.2604 12.34 20.3761 12.2749L23.443 10.5027C23.5587 10.4376 23.6311 10.3147 23.6311 10.1845V1.36709C23.6311 1.22966 23.5587 1.10669 23.443 1.04159L21.613 0.0216998ZM21.3309 9.01989C21.3309 9.05606 21.3164 9.08499 21.2875 9.09946L20.2386 9.70705C20.2097 9.72152 20.1735 9.72152 20.1446 9.70705L19.0958 9.09946C19.0669 9.08499 19.0524 9.04882 19.0524 9.01989V7.8047C19.0524 7.76853 19.0669 7.7396 19.0958 7.72513L20.1446 7.11754C20.1735 7.10307 20.2097 7.10307 20.2386 7.11754L21.2875 7.72513C21.3164 7.7396 21.3309 7.77577 21.3309 7.8047V9.01989Z" fill="#FBF9F9"/>
<path fillRule="evenodd" clipRule="evenodd" d="M31.8192 7.77578C31.9349 7.71068 32 7.58771 32 7.45751V6.59675C32 6.46655 31.9277 6.34359 31.8192 6.27849L28.774 4.51357C28.6582 4.44847 28.5208 4.44847 28.4051 4.51357L25.3382 6.28572C25.2224 6.35082 25.1501 6.47379 25.1501 6.60399V10.1411C25.1501 10.2713 25.2224 10.3942 25.3382 10.4593L28.3834 12.1953C28.4991 12.2604 28.6365 12.2604 28.745 12.1953L30.5895 11.1682C30.6474 11.1392 30.6835 11.0741 30.6835 11.009C30.6835 10.9439 30.6474 10.8789 30.5895 10.8499L27.5081 9.07777C27.4503 9.0416 27.4141 8.98373 27.4141 8.91863V7.81194C27.4141 7.74684 27.4503 7.68174 27.5081 7.65281L28.4702 7.10308C28.528 7.06691 28.6004 7.06691 28.6582 7.10308L29.6202 7.65281C29.6781 7.68898 29.7143 7.74684 29.7143 7.81194V8.67994C29.7143 8.74503 29.7504 8.81013 29.8083 8.83907C29.8662 8.87523 29.9385 8.87523 29.9964 8.83907L31.8192 7.77578Z" fill="#FBF9F9"/>
<path fillRule="evenodd" clipRule="evenodd" d="M28.5425 7.6094C28.5642 7.59493 28.5931 7.59493 28.6148 7.6094L29.2007 7.94936C29.2224 7.96383 29.2369 7.98553 29.2369 8.01446V8.69439C29.2369 8.72332 29.2224 8.74502 29.2007 8.75949L28.6148 9.09945C28.5931 9.11392 28.5642 9.11392 28.5425 9.09945L27.9566 8.75949C27.9349 8.74502 27.9204 8.72332 27.9204 8.69439V8.01446C27.9204 7.98553 27.9349 7.96383 27.9566 7.94936L28.5425 7.6094Z" fill="#FBF9F9"/>
<path fillRule="evenodd" clipRule="evenodd" d="M12 4.52803C11.8843 4.46293 11.7468 4.46293 11.6311 4.52803L8.58588 6.28571C8.47015 6.35081 8.40505 6.47378 8.40505 6.60398V10.1266C8.40505 10.2568 8.47738 10.3797 8.58588 10.4448L11.6311 12.2025C11.7468 12.2676 11.8843 12.2676 12 12.2025L15.0452 10.4448C15.1609 10.3797 15.226 10.2568 15.226 10.1266V6.60398C15.226 6.47378 15.1537 6.35081 15.0452 6.28571L12 4.52803Z" fill="#FBF9F9"/>
<path fillRule="evenodd" clipRule="evenodd" d="M12 4.52803C11.8843 4.46293 11.7468 4.46293 11.6311 4.52803L8.58588 6.28571C8.47015 6.35081 8.40505 6.47378 8.40505 6.60398V10.1266C8.40505 10.2568 8.47738 10.3797 8.58588 10.4448L11.6311 12.2025C11.7468 12.2676 11.8843 12.2676 12 12.2025L15.0452 10.4448C15.1609 10.3797 15.226 10.2568 15.226 10.1266V6.60398C15.226 6.47378 15.1537 6.35081 15.0452 6.28571L12 4.52803Z" fill="#FBF9F9"/>
<path fillRule="evenodd" clipRule="evenodd" d="M12 4.52803C11.8843 4.46293 11.7468 4.46293 11.6311 4.52803L8.58588 6.28571C8.47015 6.35081 8.40505 6.47378 8.40505 6.60398V10.1266C8.40505 10.2568 8.47738 10.3797 8.58588 10.4448L11.6311 12.2025C11.7468 12.2676 11.8843 12.2676 12 12.2025L15.0452 10.4448C15.1609 10.3797 15.226 10.2568 15.226 10.1266V6.60398C15.226 6.47378 15.1537 6.35081 15.0452 6.28571L12 4.52803Z" fill="#FBF9F9"/>
<path fillRule="evenodd" clipRule="evenodd" d="M15.0525 6.28572L11.9928 4.52803C11.9639 4.51357 11.9277 4.4991 11.8988 4.49187L8.47021 10.3653C8.49914 10.4015 8.53531 10.4304 8.57147 10.4521L11.6311 12.2098C11.7179 12.2604 11.8192 12.2749 11.9132 12.2459L15.1321 6.35805C15.1104 6.32912 15.0814 6.30742 15.0525 6.28572Z" fill="#FBF9F9"/>
<path fillRule="evenodd" clipRule="evenodd" d="M12 4.52803C11.8843 4.46293 11.7468 4.46293 11.6311 4.52803L8.58588 6.28571C8.47015 6.35081 8.40505 6.47378 8.40505 6.60398V10.1266C8.40505 10.2568 8.47738 10.3797 8.58588 10.4448L11.6311 12.2025C11.7468 12.2676 11.8843 12.2676 12 12.2025L15.0452 10.4448C15.1609 10.3797 15.226 10.2568 15.226 10.1266V6.60398C15.226 6.47378 15.1537 6.35081 15.0452 6.28571L12 4.52803Z" fill="#FBF9F9"/>
<path fillRule="evenodd" clipRule="evenodd" d="M11.5299 3.88426L11.4865 3.90596H11.5443L11.5299 3.88426Z" fill="#FBF9F9"/>
<path fillRule="evenodd" clipRule="evenodd" d="M15.0597 10.4448C15.1465 10.3942 15.2116 10.3074 15.2405 10.2134L11.8843 4.48462C11.7975 4.47016 11.7035 4.47739 11.6239 4.52802L8.5859 6.27848L11.8626 12.2532C11.906 12.2459 11.9566 12.2315 12 12.2098L15.0597 10.4448Z" fill="#FBF9F9"/>
<path fillRule="evenodd" clipRule="evenodd" d="M15.3418 10.387L15.3201 10.3508V10.4014L15.3418 10.387Z" fill="#FBF9F9"/>
<path fillRule="evenodd" clipRule="evenodd" d="M15.0597 10.4448L12.0073 12.2025C11.9639 12.2242 11.9204 12.2387 11.8698 12.2459L11.9277 12.3544L15.3128 10.3942V10.3508L15.2261 10.2062C15.2116 10.3074 15.1465 10.3942 15.0597 10.4448Z" fill="#FBF9F9"/>
<path fillRule="evenodd" clipRule="evenodd" d="M15.0597 10.4448L12.0073 12.2025C11.9639 12.2242 11.9204 12.2387 11.8698 12.2459L11.9277 12.3544L15.3128 10.3942V10.3508L15.2261 10.2062C15.2116 10.3074 15.1465 10.3942 15.0597 10.4448Z" fill="#FBF9F9"/>
</svg>
