<svg width="32" height="37" viewBox="0 0 32 37" fill="none" xmlns="http://www.w3.org/2000/svg">
<path fillRule="evenodd" clipRule="evenodd" d="M9.83375 22.3786C9.2525 22.7421 8.37675 23.3309 7.69925 23.9714C6.587 25.0218 6.35425 26.4788 6.941 26.8192C7.48375 27.1338 8.75088 26.7594 9.65775 25.7703C10.6095 24.7318 11.002 23.4153 10.5966 21.9208C10.549 21.9492 10.5023 21.9777 10.4564 22.0042L10.4574 22.0062L10.3959 22.0411C10.1593 22.1823 9.96588 22.2988 9.83375 22.3786V22.3786V22.3786ZM26.1676 21.9071C25.8384 22.6226 25.8219 22.8528 25.9219 22.9244C26.3996 22.7528 27.19 22.3392 27.1962 21.2308C27.1972 21.0648 27.1606 20.8867 27.1019 20.7006C26.5911 21.1528 26.2967 21.6263 26.1676 21.9071V21.9071V21.9071ZM31.2939 19.7437C30.0176 19.5949 29.0217 19.7739 28.2489 20.0959C28.392 20.4684 28.502 20.8564 28.5175 21.2473C28.5534 22.1052 27.9629 22.7401 27.3475 23.1933C26.9881 23.4576 26.6057 23.6337 26.2847 23.7401C26.0281 23.8483 25.687 23.9602 25.4449 23.9108C24.9111 23.8023 24.627 23.3282 24.9901 22.2823C25.1862 21.7163 25.752 20.8547 26.6652 20.1126C26.4571 19.6841 26.2251 19.2474 26.1069 18.8463C25.8739 18.0556 25.8035 17.5776 25.8035 17.5776C25.8035 17.5776 25.0507 19.1382 24.0796 20.5574C24.0236 20.6399 23.9677 20.7208 23.9117 20.8014C24.1025 21.2447 24.2527 21.7134 24.2731 22.1861C24.3089 23.0438 23.9375 23.6924 23.3212 24.1447C22.9876 24.3907 22.6317 24.5606 22.3264 24.6687C22.1311 24.7539 21.734 24.8942 21.1692 24.9319C20.8604 24.9531 20.5632 24.9339 20.3974 24.8082C20.169 24.6357 20.1415 24.4228 20.2597 24.1319C20.3597 23.8851 21.1079 23.0311 21.7351 22.2833C21.9084 22.0768 22.0734 21.8658 22.221 21.6704L22.2174 21.6621C22.2174 21.6622 22.331 21.5154 22.5154 21.2594C22.2861 20.7658 21.9955 20.2519 21.8589 19.7859C21.6259 18.9952 21.5554 18.5171 21.5554 18.5171C21.5554 18.5171 20.7924 20.4732 19.9975 22.0347C19.3824 23.2441 18.9715 23.9769 18.7864 24.2981L18.7845 24.3109C18.7845 24.3109 18.7569 24.3578 18.7092 24.4312L18.6736 24.4907L18.6726 24.4852C18.4662 24.7899 18.0032 25.3871 17.543 25.3871C16.2795 25.3871 16.7434 22.8209 16.7434 22.8209C16.7434 22.8209 16.374 23.7714 15.9576 24.5871C15.6185 25.2522 15.3095 25.8157 14.6337 25.8157C14.4394 25.8157 14.1312 25.8101 13.8754 25.5668C13.295 25.0154 12.8512 23.6153 12.9382 22.5309C13.0125 21.6089 13.1546 20.9703 13.349 20.4374C13.0024 20.6263 12.6017 20.8503 12.1937 21.0898L11.5665 21.4594L11.5867 21.4962C12.1056 22.4999 12.2441 24.6991 11.1126 26.3872C9.98125 28.0762 7.87512 29.1038 5.82312 28.5332C5.161 28.3487 4.16075 26.9789 5.0235 25.0697C5.7845 23.3861 8.82587 21.7943 9.62737 21.3971L9.84737 21.2759C8.24937 19.8777 4.25887 17.9914 3.69962 15.0941C3.54187 14.2784 3.92425 12.3279 6.31912 10.0857C8.3335 8.20031 11.1356 6.75619 13.7241 5.83594C18.0729 4.29006 22.6676 5.20194 23.3745 7.97456C24.0695 10.7013 21.704 13.9629 18.6745 15.1354C15.9696 16.1822 13.7332 16.0162 12.8145 15.7144C11.7701 15.3713 11.1576 14.6822 11.0082 14.2932C10.9495 14.1409 10.8485 13.8851 11.0082 13.7969C11.1062 13.7428 11.1456 13.7557 11.4079 14.0456C11.6574 14.3208 12.6604 15.0594 14.5657 14.8456C19.5657 14.2851 22.5776 10.3977 21.6259 8.30581C20.9594 6.84156 17.1056 6.18094 12.2909 8.58194C6.4135 11.5123 6.0945 13.9281 6.04412 14.8456C5.9065 17.3694 9.15687 18.6971 10.9156 20.5741L10.9834 20.6484C11.3125 20.4668 11.6601 20.2751 12.0011 20.0879C12.8879 19.6007 13.7241 19.1437 14.1137 18.9308C14.7327 18.0311 15.9887 17.0382 16.8956 17.0382C18.3452 17.0382 17.8474 19.1218 17.8474 19.1218C17.8474 19.1218 17.8767 19.0264 17.9161 19.0256C17.9574 19.0244 18.117 18.7511 18.5645 18.9143C19.0247 19.0832 18.9201 19.4062 18.923 19.4392C18.9285 19.5033 18.3792 21.3557 18.151 22.5438C18.0417 23.1108 18.105 23.5238 18.1372 23.5238C18.1821 23.5238 18.2739 23.3797 18.3591 23.2247L18.3572 23.2201C18.3572 23.2201 18.4214 23.1027 18.5287 22.8917L18.5499 22.8476L18.5507 22.8496C18.6774 22.6018 18.8551 22.2376 19.0605 21.7862C19.463 20.8991 20.9987 17.4741 21.129 17.0952C21.2591 16.7163 21.327 16.3246 21.3912 16.1566C21.4545 15.9887 21.9974 15.8621 22.6317 15.8667C23.2662 15.8713 23.3306 16.1419 23.335 16.1979C23.3396 16.2538 23.0334 17.0053 22.9627 17.5364C22.8931 18.0677 22.9601 18.3327 23.0179 18.7787C23.0555 19.0703 23.2379 19.4402 23.4535 19.8594C24.11 18.7859 25.2651 16.7327 25.3761 16.1574C25.4521 15.7639 25.5741 15.3868 25.6384 15.2188C25.7025 15.0509 26.2445 14.9244 26.8789 14.9289C27.5134 14.9336 27.5775 15.2042 27.5821 15.2602C27.5867 15.3162 27.2795 16.0676 27.2099 16.5988C27.1401 17.1291 27.2072 17.3952 27.2649 17.8411C27.3145 18.2227 27.6096 18.7356 27.9022 19.3189C28.7007 18.9253 29.6406 18.6612 30.741 18.6557C31.1966 18.6531 31.7257 18.6988 31.999 18.7841V10.0067C31.999 9.38744 31.6816 8.81681 31.1454 8.50769L16.827 0.231937C16.2916 -0.0773125 15.636 -0.0773125 15.1005 0.231937L0.821625 8.50369C0.286125 8.81294 0 9.38456 0 10.0028V26.5614C0 27.1797 0.287875 27.7513 0.8225 28.0604L15.1244 36.3387C15.6597 36.6489 16.309 36.6489 16.8444 36.3387L31.1527 28.0604C31.6881 27.7503 32 27.1796 32 26.5614V19.8694C31.8184 19.8159 31.5525 19.7738 31.2939 19.7437V19.7437V19.7437ZM15.8899 18.8766C15.5827 19.2206 15.0592 20.1077 14.8144 20.8502C14.3275 22.3244 14.5384 23.8227 14.8831 23.9127C15.2856 24.0181 15.9459 22.0474 16.262 21.2767C16.4601 20.7941 17.2304 18.6519 17.0616 18.3657C16.9299 18.1418 16.3841 18.3226 15.8899 18.8766V18.8766V18.8766ZM21.4602 23.8456C21.4602 23.8456 21.3631 23.9374 21.4051 23.9631C21.462 23.9971 21.5849 23.9529 21.7187 23.8832C22.0975 23.6448 22.9474 23.0502 22.9492 22.1703C22.9492 22.1447 22.9482 22.1199 22.9465 22.0933C22.7494 22.3521 22.5677 22.5823 22.411 22.7777C22.1432 23.1107 21.4602 23.8456 21.4602 23.8456V23.8456V23.8456Z" fill="#FBF9F9"/>
</svg>
