<svg width="32" height="32" viewBox="0 0 32 32" fill="none" xmlns="http://www.w3.org/2000/svg">
<path fillRule="evenodd" clipRule="evenodd" d="M2.5 0H29.5C30.8807 0 32 1.11929 32 2.5V29.5C32 30.8807 30.8807 32 29.5 32H2.5C1.11929 32 0 30.8807 0 29.5V2.5C0 1.11929 1.11929 0 2.5 0ZM13.0603 16.4678H17.5V13.625H5.125V16.4678H9.54309V29.125H13.0603V16.4678ZM18.8148 28.5119V25.0594C19.441 25.5845 20.1213 25.9782 20.8556 26.2407C21.5899 26.5034 22.3313 26.6346 23.0799 26.6346C23.519 26.6346 23.9024 26.595 24.2299 26.5159C24.5574 26.4367 24.831 26.3271 25.0505 26.1869C25.27 26.0466 25.4339 25.8811 25.5417 25.6906C25.6497 25.5 25.7038 25.2931 25.7038 25.0702C25.7038 24.7681 25.6174 24.4984 25.4446 24.261C25.2719 24.0236 25.0361 23.8042 24.7374 23.6029C24.4386 23.4015 24.0841 23.2074 23.6737 23.0204C23.2635 22.8332 22.8207 22.6427 22.3456 22.4485C21.1362 21.945 20.2347 21.33 19.6409 20.6036C19.0469 19.8771 18.75 18.9996 18.75 17.9711C18.75 17.1655 18.912 16.4732 19.2359 15.8942C19.5599 15.3152 20.0007 14.8388 20.5586 14.4646C21.1165 14.0906 21.7626 13.8155 22.4969 13.6394C23.2311 13.4631 24.0085 13.375 24.8291 13.375C25.6354 13.375 26.3499 13.4235 26.9725 13.5206C27.5951 13.6178 28.1692 13.767 28.6947 13.9684V17.1943C28.4356 17.0145 28.153 16.8563 27.8471 16.7196C27.5411 16.5829 27.2262 16.4696 26.9024 16.3797C26.5784 16.2897 26.2562 16.2232 25.9359 16.1801C25.6156 16.137 25.3115 16.1154 25.0235 16.1154C24.6276 16.1154 24.2676 16.1531 23.9438 16.2286C23.6198 16.3042 23.3463 16.4103 23.1231 16.547C22.9 16.6836 22.7271 16.8472 22.6047 17.0379C22.4824 17.2285 22.4212 17.4424 22.4212 17.6798C22.4212 17.9388 22.4896 18.1706 22.6264 18.3756C22.7631 18.5806 22.9575 18.7749 23.2095 18.9583C23.4614 19.1418 23.7674 19.3215 24.1273 19.4977C24.4873 19.674 24.8939 19.8555 25.3474 20.0426C25.9665 20.3015 26.5226 20.5766 27.0158 20.8679C27.5088 21.1592 27.9317 21.4883 28.2844 21.8551C28.6371 22.2219 28.9071 22.6409 29.0942 23.112C29.2814 23.5831 29.375 24.1316 29.375 24.7574C29.375 25.6205 29.2113 26.3451 28.8838 26.9312C28.5561 27.5175 28.1116 27.9922 27.5501 28.3555C26.9888 28.7186 26.3354 28.9794 25.5904 29.1376C24.8454 29.2959 24.0589 29.375 23.2311 29.375C22.3816 29.375 21.5736 29.3031 20.807 29.1593C20.0404 29.0154 19.3763 28.7996 18.8148 28.5119Z" fill="#FBF9F9"/>
</svg>
